<svg width="160" height="160" viewBox="0 0 160 160" fill="none" xmlns="http://www.w3.org/2000/svg">
  <path
    d="M45 18H99L130 49V132C130 141 123 148 114 148H45C36 148 29 141 29 132V34C29 25 36 18 45 18Z"
    stroke="#12161d"
    stroke-width="8"
    stroke-linejoin="round"
  />
  <path
    d="M99 18V45C99 53 105 59 113 59H130"
    stroke="#12161d"
    stroke-width="8"
    stroke-linejoin="round"
  />
  <path
    d="M50 132V40H88V56C88 69 98 79 111 79H118V132H50Z"
    stroke="#12161d"
    stroke-width="6"
    stroke-linejoin="round"
  />
  <path
    d="M11 82H149"
    stroke="#1f9a9a"
    stroke-width="8"
    stroke-linecap="round"
  />
  <path d="M23 59L46 82L23 105" stroke="#1f9a9a" stroke-width="7" stroke-linecap="round" />
  <path d="M137 59L114 82L137 105" stroke="#1f9a9a" stroke-width="7" stroke-linecap="round" />
  <circle cx="19" cy="56" r="9" fill="#1f9a9a" />
  <circle cx="19" cy="108" r="9" fill="#1f9a9a" />
  <circle cx="141" cy="56" r="9" fill="#1f9a9a" />
  <circle cx="141" cy="108" r="9" fill="#1f9a9a" />
</svg>
